<mxfile host="app.diagrams.net" agent="Mozilla/5.0 (Windows NT 10.0; Win64; x64; rv:144.0) Gecko/20100101 Firefox/144.0" version="28.2.7">
  <diagram name="PÃ¡gina-1" id="DM07hcI-7Ptv4V4feSM3">
    <mxGraphModel dx="1933" dy="1776" grid="1" gridSize="10" guides="1" tooltips="1" connect="1" arrows="1" fold="1" page="1" pageScale="1" pageWidth="827" pageHeight="1169" math="0" shadow="0">
      <root>
        <mxCell id="0" />
        <mxCell id="1" parent="0" />
        <mxCell id="7ZLoI3_ALwXNqUpAQiBj-1" value="appGrupo10" style="whiteSpace=wrap;html=1;sketch=1;curveFitting=1;jiggle=2;shadow=1;fillColor=#e3c800;fontColor=#000000;strokeColor=#B09500;fontFamily=Comic Sans MS;" vertex="1" parent="1">
          <mxGeometry x="-335" y="-330" width="90" height="30" as="geometry" />
        </mxCell>
        <mxCell id="7ZLoI3_ALwXNqUpAQiBj-2" value="README.md" style="whiteSpace=wrap;html=1;sketch=1;curveFitting=1;jiggle=2;shadow=1;fillColor=#647687;fontColor=default;strokeColor=#314354;fontFamily=Comic Sans MS;" vertex="1" parent="1">
          <mxGeometry x="-560" y="-200" width="90" height="30" as="geometry" />
        </mxCell>
        <mxCell id="7ZLoI3_ALwXNqUpAQiBj-3" value="" style="noEdgeStyle=1;orthogonal=1;rounded=0;sketch=1;curveFitting=1;jiggle=2;shadow=1;fontFamily=Comic Sans MS;" edge="1" source="7ZLoI3_ALwXNqUpAQiBj-1" target="7ZLoI3_ALwXNqUpAQiBj-2" parent="1">
          <mxGeometry relative="1" as="geometry">
            <Array as="points">
              <mxPoint x="-322" y="-288" />
              <mxPoint x="-515" y="-212" />
            </Array>
          </mxGeometry>
        </mxCell>
        <mxCell id="7ZLoI3_ALwXNqUpAQiBj-4" value="public" style="whiteSpace=wrap;html=1;sketch=1;curveFitting=1;jiggle=2;shadow=1;fillColor=#e3c800;fontColor=#000000;strokeColor=#B09500;fontFamily=Comic Sans MS;" vertex="1" parent="1">
          <mxGeometry x="-440" y="-200" width="80" height="30" as="geometry" />
        </mxCell>
        <mxCell id="7ZLoI3_ALwXNqUpAQiBj-5" value="" style="noEdgeStyle=1;orthogonal=1;rounded=0;sketch=1;curveFitting=1;jiggle=2;shadow=1;fontFamily=Comic Sans MS;" edge="1" source="7ZLoI3_ALwXNqUpAQiBj-1" target="7ZLoI3_ALwXNqUpAQiBj-4" parent="1">
          <mxGeometry relative="1" as="geometry">
            <Array as="points">
              <mxPoint x="-306" y="-286" />
              <mxPoint x="-400" y="-212" />
            </Array>
          </mxGeometry>
        </mxCell>
        <mxCell id="7ZLoI3_ALwXNqUpAQiBj-6" value="src" style="whiteSpace=wrap;html=1;sketch=1;curveFitting=1;jiggle=2;shadow=1;fillColor=#e3c800;fontColor=#000000;strokeColor=#B09500;fontFamily=Comic Sans MS;" vertex="1" parent="1">
          <mxGeometry x="-330" y="-200" width="80" height="30" as="geometry" />
        </mxCell>
        <mxCell id="7ZLoI3_ALwXNqUpAQiBj-7" value="" style="noEdgeStyle=1;orthogonal=1;rounded=0;sketch=1;curveFitting=1;jiggle=2;shadow=1;fontFamily=Comic Sans MS;" edge="1" source="7ZLoI3_ALwXNqUpAQiBj-1" target="7ZLoI3_ALwXNqUpAQiBj-6" parent="1">
          <mxGeometry relative="1" as="geometry">
            <Array as="points">
              <mxPoint x="-290" y="-284" />
              <mxPoint x="-290" y="-212" />
            </Array>
          </mxGeometry>
        </mxCell>
        <mxCell id="7ZLoI3_ALwXNqUpAQiBj-8" value="componentes" style="whiteSpace=wrap;html=1;sketch=1;curveFitting=1;jiggle=2;shadow=1;fillColor=#e3c800;fontColor=#000000;strokeColor=#B09500;fontFamily=Comic Sans MS;" vertex="1" parent="1">
          <mxGeometry x="-220" y="-200" width="100" height="30" as="geometry" />
        </mxCell>
        <mxCell id="7ZLoI3_ALwXNqUpAQiBj-9" value="" style="noEdgeStyle=1;orthogonal=1;rounded=0;sketch=1;curveFitting=1;jiggle=2;shadow=1;fontFamily=Comic Sans MS;" edge="1" source="7ZLoI3_ALwXNqUpAQiBj-1" target="7ZLoI3_ALwXNqUpAQiBj-8" parent="1">
          <mxGeometry relative="1" as="geometry">
            <Array as="points">
              <mxPoint x="-274" y="-286" />
              <mxPoint x="-170" y="-212" />
            </Array>
          </mxGeometry>
        </mxCell>
        <mxCell id="7ZLoI3_ALwXNqUpAQiBj-10" value="secciones" style="whiteSpace=wrap;html=1;sketch=1;curveFitting=1;jiggle=2;shadow=1;fillColor=#e3c800;fontColor=#000000;strokeColor=#B09500;fontFamily=Comic Sans MS;" vertex="1" parent="1">
          <mxGeometry x="-90" y="-200" width="80" height="30" as="geometry" />
        </mxCell>
        <mxCell id="7ZLoI3_ALwXNqUpAQiBj-11" value="" style="noEdgeStyle=1;orthogonal=1;rounded=0;sketch=1;curveFitting=1;jiggle=2;shadow=1;fontFamily=Comic Sans MS;" edge="1" source="7ZLoI3_ALwXNqUpAQiBj-1" target="7ZLoI3_ALwXNqUpAQiBj-10" parent="1">
          <mxGeometry relative="1" as="geometry">
            <Array as="points">
              <mxPoint x="-258" y="-288" />
              <mxPoint x="-50" y="-212" />
            </Array>
          </mxGeometry>
        </mxCell>
        <mxCell id="7ZLoI3_ALwXNqUpAQiBj-12" value="imagenes" style="whiteSpace=wrap;html=1;sketch=1;curveFitting=1;jiggle=2;shadow=1;fillColor=#e3c800;fontColor=#000000;strokeColor=#B09500;fontFamily=Comic Sans MS;" vertex="1" parent="1">
          <mxGeometry x="-765" y="-70" width="80" height="30" as="geometry" />
        </mxCell>
        <mxCell id="7ZLoI3_ALwXNqUpAQiBj-13" value="" style="noEdgeStyle=1;orthogonal=1;rounded=0;sketch=1;curveFitting=1;jiggle=2;shadow=1;fontFamily=Comic Sans MS;" edge="1" source="7ZLoI3_ALwXNqUpAQiBj-4" target="7ZLoI3_ALwXNqUpAQiBj-12" parent="1">
          <mxGeometry relative="1" as="geometry">
            <Array as="points">
              <mxPoint x="-400" y="-158" />
              <mxPoint x="-725" y="-82" />
            </Array>
          </mxGeometry>
        </mxCell>
        <mxCell id="7ZLoI3_ALwXNqUpAQiBj-14" value="licha.png" style="whiteSpace=wrap;html=1;sketch=1;curveFitting=1;jiggle=2;shadow=1;fillColor=#008a00;fontColor=default;strokeColor=#005700;fontFamily=Comic Sans MS;" vertex="1" parent="1">
          <mxGeometry x="-780" y="60" width="80" height="30" as="geometry" />
        </mxCell>
        <mxCell id="7ZLoI3_ALwXNqUpAQiBj-15" value="" style="noEdgeStyle=1;orthogonal=1;rounded=0;sketch=1;curveFitting=1;jiggle=2;shadow=1;fontFamily=Comic Sans MS;" edge="1" source="7ZLoI3_ALwXNqUpAQiBj-12" target="7ZLoI3_ALwXNqUpAQiBj-14" parent="1">
          <mxGeometry relative="1" as="geometry">
            <Array as="points">
              <mxPoint x="-755" y="-28" />
              <mxPoint x="-740" y="48" />
            </Array>
          </mxGeometry>
        </mxCell>
        <mxCell id="7ZLoI3_ALwXNqUpAQiBj-16" value="lu.png" style="whiteSpace=wrap;html=1;sketch=1;curveFitting=1;jiggle=2;shadow=1;fillColor=#008a00;fontColor=default;strokeColor=#005700;fontFamily=Comic Sans MS;" vertex="1" parent="1">
          <mxGeometry x="-670" y="60" width="80" height="30" as="geometry" />
        </mxCell>
        <mxCell id="7ZLoI3_ALwXNqUpAQiBj-17" value="" style="noEdgeStyle=1;orthogonal=1;rounded=0;sketch=1;curveFitting=1;jiggle=2;shadow=1;fontFamily=Comic Sans MS;" edge="1" source="7ZLoI3_ALwXNqUpAQiBj-12" target="7ZLoI3_ALwXNqUpAQiBj-16" parent="1">
          <mxGeometry relative="1" as="geometry">
            <Array as="points">
              <mxPoint x="-745" y="-26" />
              <mxPoint x="-630" y="48" />
            </Array>
          </mxGeometry>
        </mxCell>
        <mxCell id="7ZLoI3_ALwXNqUpAQiBj-18" value="mila.png" style="whiteSpace=wrap;html=1;sketch=1;curveFitting=1;jiggle=2;shadow=1;fillColor=#008a00;fontColor=default;strokeColor=#005700;fontFamily=Comic Sans MS;" vertex="1" parent="1">
          <mxGeometry x="-560" y="60" width="80" height="30" as="geometry" />
        </mxCell>
        <mxCell id="7ZLoI3_ALwXNqUpAQiBj-19" value="" style="noEdgeStyle=1;orthogonal=1;rounded=0;sketch=1;curveFitting=1;jiggle=2;shadow=1;fontFamily=Comic Sans MS;" edge="1" source="7ZLoI3_ALwXNqUpAQiBj-12" target="7ZLoI3_ALwXNqUpAQiBj-18" parent="1">
          <mxGeometry relative="1" as="geometry">
            <Array as="points">
              <mxPoint x="-735" y="-24" />
              <mxPoint x="-520" y="48" />
            </Array>
          </mxGeometry>
        </mxCell>
        <mxCell id="7ZLoI3_ALwXNqUpAQiBj-20" value="museo.jpg" style="whiteSpace=wrap;html=1;sketch=1;curveFitting=1;jiggle=2;shadow=1;fillColor=#008a00;fontColor=default;strokeColor=#005700;fontFamily=Comic Sans MS;" vertex="1" parent="1">
          <mxGeometry x="-450" y="60" width="80" height="30" as="geometry" />
        </mxCell>
        <mxCell id="7ZLoI3_ALwXNqUpAQiBj-21" value="" style="noEdgeStyle=1;orthogonal=1;rounded=0;sketch=1;curveFitting=1;jiggle=2;shadow=1;fontFamily=Comic Sans MS;" edge="1" source="7ZLoI3_ALwXNqUpAQiBj-12" target="7ZLoI3_ALwXNqUpAQiBj-20" parent="1">
          <mxGeometry relative="1" as="geometry">
            <Array as="points">
              <mxPoint x="-725" y="-22" />
              <mxPoint x="-410" y="48" />
            </Array>
          </mxGeometry>
        </mxCell>
        <mxCell id="7ZLoI3_ALwXNqUpAQiBj-22" value="museodark.jpg" style="whiteSpace=wrap;html=1;sketch=1;curveFitting=1;jiggle=2;shadow=1;fillColor=#008a00;fontColor=default;strokeColor=#005700;fontFamily=Comic Sans MS;" vertex="1" parent="1">
          <mxGeometry x="-340" y="60" width="100" height="30" as="geometry" />
        </mxCell>
        <mxCell id="7ZLoI3_ALwXNqUpAQiBj-23" value="" style="noEdgeStyle=1;orthogonal=1;rounded=0;sketch=1;curveFitting=1;jiggle=2;shadow=1;fontFamily=Comic Sans MS;" edge="1" source="7ZLoI3_ALwXNqUpAQiBj-12" target="7ZLoI3_ALwXNqUpAQiBj-22" parent="1">
          <mxGeometry relative="1" as="geometry">
            <Array as="points">
              <mxPoint x="-715" y="-24" />
              <mxPoint x="-290" y="48" />
            </Array>
          </mxGeometry>
        </mxCell>
        <mxCell id="7ZLoI3_ALwXNqUpAQiBj-24" value="pablo.png" style="whiteSpace=wrap;html=1;sketch=1;curveFitting=1;jiggle=2;shadow=1;fillColor=#008a00;fontColor=default;strokeColor=#005700;fontFamily=Comic Sans MS;" vertex="1" parent="1">
          <mxGeometry x="-210" y="60" width="80" height="30" as="geometry" />
        </mxCell>
        <mxCell id="7ZLoI3_ALwXNqUpAQiBj-25" value="" style="noEdgeStyle=1;orthogonal=1;rounded=0;sketch=1;curveFitting=1;jiggle=2;shadow=1;fontFamily=Comic Sans MS;" edge="1" source="7ZLoI3_ALwXNqUpAQiBj-12" target="7ZLoI3_ALwXNqUpAQiBj-24" parent="1">
          <mxGeometry relative="1" as="geometry">
            <Array as="points">
              <mxPoint x="-705" y="-26" />
              <mxPoint x="-170" y="48" />
            </Array>
          </mxGeometry>
        </mxCell>
        <mxCell id="7ZLoI3_ALwXNqUpAQiBj-26" value="tincho.png" style="whiteSpace=wrap;html=1;sketch=1;curveFitting=1;jiggle=2;shadow=1;fillColor=#008a00;fontColor=default;strokeColor=#005700;fontFamily=Comic Sans MS;" vertex="1" parent="1">
          <mxGeometry x="-100" y="60" width="80" height="30" as="geometry" />
        </mxCell>
        <mxCell id="7ZLoI3_ALwXNqUpAQiBj-27" value="" style="noEdgeStyle=1;orthogonal=1;rounded=0;sketch=1;curveFitting=1;jiggle=2;shadow=1;fontFamily=Comic Sans MS;" edge="1" source="7ZLoI3_ALwXNqUpAQiBj-12" target="7ZLoI3_ALwXNqUpAQiBj-26" parent="1">
          <mxGeometry relative="1" as="geometry">
            <Array as="points">
              <mxPoint x="-695" y="-28" />
              <mxPoint x="-60" y="48" />
            </Array>
          </mxGeometry>
        </mxCell>
        <mxCell id="7ZLoI3_ALwXNqUpAQiBj-28" value="data" style="whiteSpace=wrap;html=1;sketch=1;curveFitting=1;jiggle=2;shadow=1;fillColor=#e3c800;fontColor=#000000;strokeColor=#B09500;fontFamily=Comic Sans MS;" vertex="1" parent="1">
          <mxGeometry x="-655" y="-70" width="80" height="30" as="geometry" />
        </mxCell>
        <mxCell id="7ZLoI3_ALwXNqUpAQiBj-29" value="" style="noEdgeStyle=1;orthogonal=1;rounded=0;sketch=1;curveFitting=1;jiggle=2;shadow=1;fontFamily=Comic Sans MS;" edge="1" source="7ZLoI3_ALwXNqUpAQiBj-6" target="7ZLoI3_ALwXNqUpAQiBj-28" parent="1">
          <mxGeometry relative="1" as="geometry">
            <Array as="points">
              <mxPoint x="-307.5" y="-158" />
              <mxPoint x="-615" y="-82" />
            </Array>
          </mxGeometry>
        </mxCell>
        <mxCell id="7ZLoI3_ALwXNqUpAQiBj-30" value="rutas" style="whiteSpace=wrap;html=1;sketch=1;curveFitting=1;jiggle=2;shadow=1;fillColor=#e3c800;fontColor=#000000;strokeColor=#B09500;fontFamily=Comic Sans MS;" vertex="1" parent="1">
          <mxGeometry x="-545" y="-70" width="80" height="30" as="geometry" />
        </mxCell>
        <mxCell id="7ZLoI3_ALwXNqUpAQiBj-31" value="" style="noEdgeStyle=1;orthogonal=1;rounded=0;sketch=1;curveFitting=1;jiggle=2;shadow=1;fontFamily=Comic Sans MS;" edge="1" source="7ZLoI3_ALwXNqUpAQiBj-6" target="7ZLoI3_ALwXNqUpAQiBj-30" parent="1">
          <mxGeometry relative="1" as="geometry">
            <Array as="points">
              <mxPoint x="-272.5" y="-158" />
              <mxPoint x="-505" y="-82" />
            </Array>
          </mxGeometry>
        </mxCell>
        <mxCell id="7ZLoI3_ALwXNqUpAQiBj-32" value="pintores.json" style="whiteSpace=wrap;html=1;sketch=1;curveFitting=1;jiggle=2;shadow=1;fillColor=#fa6800;fontColor=#000000;strokeColor=#C73500;fontFamily=Comic Sans MS;" vertex="1" parent="1">
          <mxGeometry x="10" y="60" width="90" height="30" as="geometry" />
        </mxCell>
        <mxCell id="7ZLoI3_ALwXNqUpAQiBj-33" value="" style="noEdgeStyle=1;orthogonal=1;rounded=0;sketch=1;curveFitting=1;jiggle=2;shadow=1;fontFamily=Comic Sans MS;" edge="1" source="7ZLoI3_ALwXNqUpAQiBj-28" target="7ZLoI3_ALwXNqUpAQiBj-32" parent="1">
          <mxGeometry relative="1" as="geometry">
            <Array as="points">
              <mxPoint x="-615" y="-28" />
              <mxPoint x="55" y="48" />
            </Array>
          </mxGeometry>
        </mxCell>
        <mxCell id="7ZLoI3_ALwXNqUpAQiBj-34" value="rutas.jsx" style="whiteSpace=wrap;html=1;sketch=1;curveFitting=1;jiggle=2;shadow=1;fillColor=#1ba1e2;fontColor=default;strokeColor=#006EAF;fontFamily=Comic Sans MS;" vertex="1" parent="1">
          <mxGeometry x="130" y="60" width="80" height="30" as="geometry" />
        </mxCell>
        <mxCell id="7ZLoI3_ALwXNqUpAQiBj-35" value="" style="noEdgeStyle=1;orthogonal=1;rounded=0;sketch=1;curveFitting=1;jiggle=2;shadow=1;fontFamily=Comic Sans MS;" edge="1" source="7ZLoI3_ALwXNqUpAQiBj-30" target="7ZLoI3_ALwXNqUpAQiBj-34" parent="1">
          <mxGeometry relative="1" as="geometry">
            <Array as="points">
              <mxPoint x="-505" y="-28" />
              <mxPoint x="170" y="48" />
            </Array>
          </mxGeometry>
        </mxCell>
        <mxCell id="7ZLoI3_ALwXNqUpAQiBj-36" value="Card.jsx" style="whiteSpace=wrap;html=1;sketch=1;curveFitting=1;jiggle=2;shadow=1;fillColor=#1ba1e2;fontColor=default;strokeColor=#006EAF;fontFamily=Comic Sans MS;" vertex="1" parent="1">
          <mxGeometry x="-435" y="-70" width="80" height="30" as="geometry" />
        </mxCell>
        <mxCell id="7ZLoI3_ALwXNqUpAQiBj-37" value="" style="noEdgeStyle=1;orthogonal=1;rounded=0;sketch=1;curveFitting=1;jiggle=2;shadow=1;fontFamily=Comic Sans MS;" edge="1" source="7ZLoI3_ALwXNqUpAQiBj-8" target="7ZLoI3_ALwXNqUpAQiBj-36" parent="1">
          <mxGeometry relative="1" as="geometry">
            <Array as="points">
              <mxPoint x="-170" y="-158" />
              <mxPoint x="-395" y="-82" />
            </Array>
          </mxGeometry>
        </mxCell>
        <mxCell id="7ZLoI3_ALwXNqUpAQiBj-38" value="Licha.jsx" style="whiteSpace=wrap;html=1;sketch=1;curveFitting=1;jiggle=2;shadow=1;fillColor=#1ba1e2;fontColor=default;strokeColor=#006EAF;fontFamily=Comic Sans MS;" vertex="1" parent="1">
          <mxGeometry x="-325" y="-70" width="80" height="30" as="geometry" />
        </mxCell>
        <mxCell id="7ZLoI3_ALwXNqUpAQiBj-39" value="" style="noEdgeStyle=1;orthogonal=1;rounded=0;sketch=1;curveFitting=1;jiggle=2;shadow=1;fontFamily=Comic Sans MS;" edge="1" source="7ZLoI3_ALwXNqUpAQiBj-10" target="7ZLoI3_ALwXNqUpAQiBj-38" parent="1">
          <mxGeometry relative="1" as="geometry">
            <Array as="points">
              <mxPoint x="-78" y="-158" />
              <mxPoint x="-285" y="-82" />
            </Array>
          </mxGeometry>
        </mxCell>
        <mxCell id="7ZLoI3_ALwXNqUpAQiBj-40" value="Lu.jsx" style="whiteSpace=wrap;html=1;sketch=1;curveFitting=1;jiggle=2;shadow=1;fillColor=#1ba1e2;fontColor=default;strokeColor=#006EAF;fontFamily=Comic Sans MS;" vertex="1" parent="1">
          <mxGeometry x="-215" y="-70" width="80" height="30" as="geometry" />
        </mxCell>
        <mxCell id="7ZLoI3_ALwXNqUpAQiBj-41" value="" style="noEdgeStyle=1;orthogonal=1;rounded=0;sketch=1;curveFitting=1;jiggle=2;shadow=1;fontFamily=Comic Sans MS;" edge="1" source="7ZLoI3_ALwXNqUpAQiBj-10" target="7ZLoI3_ALwXNqUpAQiBj-40" parent="1">
          <mxGeometry relative="1" as="geometry">
            <Array as="points">
              <mxPoint x="-64" y="-156" />
              <mxPoint x="-175" y="-82" />
            </Array>
          </mxGeometry>
        </mxCell>
        <mxCell id="7ZLoI3_ALwXNqUpAQiBj-42" value="Mila.jsx" style="whiteSpace=wrap;html=1;sketch=1;curveFitting=1;jiggle=2;shadow=1;fillColor=#1ba1e2;fontColor=default;strokeColor=#006EAF;fontFamily=Comic Sans MS;" vertex="1" parent="1">
          <mxGeometry x="-105" y="-70" width="80" height="30" as="geometry" />
        </mxCell>
        <mxCell id="7ZLoI3_ALwXNqUpAQiBj-43" value="" style="noEdgeStyle=1;orthogonal=1;rounded=0;sketch=1;curveFitting=1;jiggle=2;shadow=1;fontFamily=Comic Sans MS;" edge="1" source="7ZLoI3_ALwXNqUpAQiBj-10" target="7ZLoI3_ALwXNqUpAQiBj-42" parent="1">
          <mxGeometry relative="1" as="geometry">
            <Array as="points">
              <mxPoint x="-50" y="-154" />
              <mxPoint x="-65" y="-82" />
            </Array>
          </mxGeometry>
        </mxCell>
        <mxCell id="7ZLoI3_ALwXNqUpAQiBj-44" value="Pablo.jsx" style="whiteSpace=wrap;html=1;sketch=1;curveFitting=1;jiggle=2;shadow=1;fillColor=#1ba1e2;fontColor=default;strokeColor=#006EAF;fontFamily=Comic Sans MS;" vertex="1" parent="1">
          <mxGeometry x="5" y="-70" width="80" height="30" as="geometry" />
        </mxCell>
        <mxCell id="7ZLoI3_ALwXNqUpAQiBj-45" value="" style="noEdgeStyle=1;orthogonal=1;rounded=0;sketch=1;curveFitting=1;jiggle=2;shadow=1;fontFamily=Comic Sans MS;" edge="1" source="7ZLoI3_ALwXNqUpAQiBj-10" target="7ZLoI3_ALwXNqUpAQiBj-44" parent="1">
          <mxGeometry relative="1" as="geometry">
            <Array as="points">
              <mxPoint x="-36" y="-156" />
              <mxPoint x="45" y="-82" />
            </Array>
          </mxGeometry>
        </mxCell>
        <mxCell id="7ZLoI3_ALwXNqUpAQiBj-46" value="Tincho.jsx" style="whiteSpace=wrap;html=1;sketch=1;curveFitting=1;jiggle=2;shadow=1;fillColor=#1ba1e2;fontColor=default;strokeColor=#006EAF;fontFamily=Comic Sans MS;" vertex="1" parent="1">
          <mxGeometry x="115" y="-70" width="80" height="30" as="geometry" />
        </mxCell>
        <mxCell id="7ZLoI3_ALwXNqUpAQiBj-47" value="" style="noEdgeStyle=1;orthogonal=1;rounded=0;sketch=1;curveFitting=1;jiggle=2;shadow=1;fontFamily=Comic Sans MS;" edge="1" source="7ZLoI3_ALwXNqUpAQiBj-10" target="7ZLoI3_ALwXNqUpAQiBj-46" parent="1">
          <mxGeometry relative="1" as="geometry">
            <Array as="points">
              <mxPoint x="-22" y="-158" />
              <mxPoint x="155" y="-82" />
            </Array>
          </mxGeometry>
        </mxCell>
      </root>
    </mxGraphModel>
  </diagram>
</mxfile>
